<?xml version="1.0" standalone="no"?>
<!DOCTYPE svg PUBLIC "-//W3C//DTD SVG 20010904//EN"
 "http://www.w3.org/TR/2001/REC-SVG-20010904/DTD/svg10.dtd">
<svg version="1.0" xmlns="http://www.w3.org/2000/svg"
 width="2000.000000pt" height="585.000000pt" viewBox="0 0 2000.000000 585.000000"
 preserveAspectRatio="xMidYMid meet">

<g transform="translate(0.000000,585.000000) scale(0.100000,-0.100000)"
fill="#000000" stroke="none">
<path d="M6767 1993 l-48 -4 6 -187 c3 -103 8 -229 11 -279 l6 -93 86 6 c48 4
88 7 89 8 5 4 18 430 15 489 l-4 67 -56 -2 c-32 -1 -79 -3 -105 -5z"/>
<path d="M7590 1949 c-305 -33 -500 -243 -450 -484 39 -188 170 -288 521 -400
159 -50 228 -89 257 -145 39 -77 26 -150 -37 -203 -44 -37 -95 -51 -186 -52
-174 -1 -258 60 -289 208 l-6 27 -150 0 c-173 0 -164 7 -135 -105 35 -131 118
-231 250 -296 102 -50 191 -69 333 -69 248 0 420 79 503 232 33 61 34 66 34
178 0 104 -3 120 -27 173 -62 132 -205 226 -468 307 -208 65 -281 109 -300
181 -21 78 25 157 115 195 55 23 186 23 240 0 73 -31 125 -98 125 -161 l0 -25
156 0 155 0 -7 48 c-15 105 -57 183 -136 258 -114 108 -293 156 -498 133z"/>
<path d="M6210 1891 l-104 -6 -163 -535 c-90 -294 -165 -542 -169 -550 -5 -15
-32 50 -309 734 l-128 318 -196 -7 c-108 -4 -197 -8 -199 -10 -1 -1 11 -314
28 -695 16 -380 30 -715 30 -742 l0 -51 153 8 c83 4 152 8 153 8 5 15 -23 457
-47 725 -17 194 -29 358 -27 364 2 6 89 -196 193 -448 103 -253 204 -496 223
-541 l34 -83 82 1 c138 2 105 -61 302 569 96 304 177 556 179 559 3 2 5 -171
6 -385 0 -354 10 -710 20 -718 7 -5 287 9 293 15 3 3 -8 313 -24 690 -16 376
-30 708 -30 737 l0 52 -97 -2 c-54 -1 -145 -4 -203 -7z"/>
<path d="M4433 1813 l-93 -4 0 -47 c0 -66 69 -1347 76 -1400 l5 -44 147 7 c81
4 148 8 149 9 1 1 -16 317 -37 701 -22 385 -40 719 -40 743 l0 42 -57 -2 c-32
-1 -100 -4 -150 -5z"/>
<path d="M3251 1739 c-151 -10 -276 -21 -279 -23 -3 -4 88 -1478 92 -1482 3
-3 292 19 295 22 3 2 -3 124 -13 270 -9 147 -15 268 -13 270 2 2 59 5 127 7
l124 2 153 -255 c148 -246 154 -255 186 -258 40 -4 286 14 293 20 2 3 -77 137
-176 298 -99 160 -180 293 -180 295 0 2 29 24 64 49 75 54 137 139 157 218 8
29 13 94 13 143 -3 222 -114 366 -321 420 -92 24 -228 25 -522 4z m424 -248
c79 -36 118 -106 119 -212 0 -105 -52 -176 -154 -207 -42 -13 -312 -33 -321
-24 -4 4 -12 93 -18 197 -6 105 -13 204 -14 220 l-2 30 70 6 c161 13 278 9
320 -10z"/>
<path d="M2111 1655 c-119 -9 -135 -12 -143 -30 -11 -28 -428 -1483 -428
-1496 0 -11 166 -5 269 10 l45 6 37 149 c20 81 41 152 46 156 4 4 109 15 233
24 124 9 243 19 265 22 l40 6 64 -152 64 -152 61 5 c34 4 105 9 159 13 53 4
97 9 97 11 0 9 -662 1428 -668 1433 -4 3 -67 1 -141 -5z m148 -643 c61 -145
111 -267 111 -271 0 -9 -358 -36 -367 -28 -5 6 123 540 134 560 3 5 6 7 8 5 1
-2 52 -122 114 -266z"/>
<path d="M1086 1573 c-77 -7 -142 -16 -145 -18 -3 -3 7 -137 22 -297 15 -160
24 -294 20 -298 -10 -9 -584 -62 -592 -55 -3 3 -17 136 -32 296 -15 160 -29
293 -32 295 -6 6 -280 -17 -289 -25 -6 -5 113 -1349 128 -1438 5 -33 5 -33 62
-33 58 0 232 16 238 22 1 2 -11 145 -27 317 -16 173 -28 315 -27 317 10 8 591
55 597 48 5 -5 21 -146 36 -314 15 -168 29 -307 31 -309 2 -2 69 2 149 9 121
10 145 15 145 29 1 42 -135 1471 -140 1470 -3 -1 -68 -8 -144 -16z"/>
</g>
</svg>
